# xmcd
#
# Track frame offsets:
#	150
#	16885
#	27664
#	38307
#	49721
#	65927
#	77502
#	89978
#	110732
#	122771
#	136603
#	148930
#
# Disc length: 2214
#
# Revision: 3
# Processed by: cddbd v1.5.1PL0 Copyright (c) Steve Scherf et al.
# Submitted via: EasyCDDAExtractor 7.1.0.1
# Normalized: r2:DSETVAR1
#
DISCID=a808a40c
DTITLE=Various Artist - The Sunday Life CD - Country Christmas
DYEAR=2004
DGENRE=Country
TTITLE0=Dolly Parton and Kenny Rodgers - Winter Wonderlnd - Sleigh Ride
TTITLE1=Johnny Cash - White Christmas
TTITLE2=Patsy Cline - I Can See An Angel
TTITLE3=Witchita Line Band - White Christmas
TTITLE4=Charlie Landsborough - Have Yourself A Merry Little Christmas
TTITLE5=Gene Autry - Here Comes Santa Claus
TTITLE6=Merle Haggard - If We Make It Through December
TTITLE7=Charlie Landsborough - Auld Lang Syne
TTITLE8=The Nickels - Jingle Bells
TTITLE9=Red Roads - We Three Kings
TTITLE10=Southern Star - The First Noel
TTITLE11=Various Artist - Silent Night
EXTD=
EXTT0=
EXTT1=
EXTT2=
EXTT3=
EXTT4=
EXTT5=
EXTT6=
EXTT7=
EXTT8=
EXTT9=
EXTT10=
EXTT11=
PLAYORDER=
